#!OML:ASF F:\VICON\USERDATA\INSTALL\rory3\rory3.ASF
:FULLY-SPECIFIED
:DEGREES
98
root 11.2155 17.9986 -5.50188 -4.73429 -13.6334 7.72122
lowerback 11.6885 1.34002 -5.76425
upperback 1.00797 0.956431 -1.07202
thorax -5.58028 0.590113 1.96611
lowerneck -19.1329 -7.47293 -13.4484
upperneck 28.8316 -10.0656 11.0736
head 14.4264 -4.43969 4.9236
rclavicle 1.82136e-014 -1.59028e-014
rhumerus -32.9811 -13.8696 -82.765
rradius 32.1695
rwrist 7.11948
rhand -16.0198 8.56159
rfingers 7.12502
rthumb 10.181 -21.1721
lclavicle 1.82136e-014 -1.59028e-014
lhumerus -33.3015 8.63606 80.089
lradius 28.1729
lwrist -8.92286
lhand -18.4649 26.7929
lfingers 7.12502
lthumb 7.82166 56.6283
rfemur -18.7035 -11.9009 15.4014
rtibia 69.1683
rfoot -4.62101 -3.54633
rtoes 14.5763
lfemur 2.30589 2.78219 -26.7591
ltibia 8.8883
lfoot -3.49012 -4.95606
ltoes -13.9075
99
root 11.191 17.9908 -5.39263 -4.71719 -13.8176 8.20224
lowerback 11.4278 1.22922 -6.08057
upperback 1.12415 0.781704 -1.26449
thorax -5.30007 0.499953 1.9749
lowerneck -19.256 -7.49266 -13.3835
upperneck 28.6978 -10.1481 11.2452
head 14.4158 -4.44211 4.96082
rclavicle 1.21259e-014 2.18663e-014
rhumerus -32.7852 -14.6112 -82.6411
rradius 31.9099
rwrist 6.87304
rhand -16.5658 8.37988
rfingers 7.12502
rthumb 9.65428 -21.3789
lclavicle 1.21259e-014 2.18663e-014
lhumerus -32.7083 8.2011 80.0408
lradius 28.5285
lwrist -8.45508
lhand -18.274 26.9988
lfingers 7.12502
lthumb 8.0059 56.8272
rfemur -19.7888 -12.4469 14.9207
rtibia 68.7088
rfoot -5.96966 -3.50809
rtoes 13.7777
lfemur 1.90572 2.82597 -27.2881
ltibia 10.0151
lfoot -3.9983 -4.61712
ltoes -13.1605
100
root 11.1664 17.9752 -5.28654 -4.71288 -14.0391 8.53228
lowerback 11.4743 1.10086 -6.32272
upperback 1.0496 0.568587 -1.34524
thorax -5.3897 0.403341 2.05889
lowerneck -19.3115 -7.42577 -13.2738
upperneck 28.7601 -10.0783 11.2103
head 14.4337 -4.40399 4.94301
rclavicle -4.4329e-014 5.96354e-015
rhumerus -32.9151 -15.0026 -82.4313
rradius 31.7075
rwrist 6.5768
rhand -16.6954 8.19063
rfingers 7.12502
rthumb 9.52925 -21.5739
lclavicle -4.4329e-014 5.96354e-015
lhumerus -32.4314 7.93724 79.96
lradius 28.8225
lwrist -8.05348
lhand -18.3798 27.2037
lfingers 7.12502
lthumb 7.90381 57.036
rfemur -20.8367 -13.0195 14.656
rtibia 68.1056
rfoot -6.94964 -3.51983
rtoes 14.0157
lfemur 1.58492 3.01871 -27.6238
ltibia 11.1137
lfoot -4.54833 -4.36332
ltoes -12.5109
101
root 11.1385 17.9595 -5.18063 -4.62347 -14.4079 8.64063
lowerback 11.487 0.998916 -6.43327
upperback 0.940724 0.415411 -1.30512
thorax -5.50065 0.336364 2.18687
lowerneck -19.3107 -7.37745 -13.3131
upperneck 28.7437 -9.98923 11.1965
head 14.413 -4.37306 4.96103
rclavicle -2.09966e-014 1.19271e-015
rhumerus -33.1375 -15.2649 -82.1257
rradius 31.5734
rwrist 6.3851
rhand -16.3857 8.05447
rfingers 7.12502
rthumb 9.82808 -21.6962
lclavicle -2.09966e-014 1.19271e-015
lhumerus -32.1926 7.84844 79.892
lradius 29.0354
lwrist -7.88405
lhand -18.4907 27.2399
lfingers 7.12502
lthumb 7.7967 57.0762
rfemur -21.8971 -13.3005 14.7214
rtibia 67.3484
rfoot -7.95504 -3.71652
rtoes 14.3082
lfemur 1.35665 3.22635 -27.7059
ltibia 12.0614
lfoot -5.2164 -4.00677
ltoes -12.3477
102
root 11.1033 17.9501 -5.07613 -4.58388 -14.7945 8.58316
lowerback 11.571 0.962612 -6.4647
upperback 0.893275 0.360098 -1.2021
thorax -5.59403 0.314775 2.32111
lowerneck -19.2652 -7.41418 -13.3753
upperneck 28.645 -10.0104 11.1691
head 14.3652 -4.39425 4.95175
rclavicle -2.34566e-014 9.14409e-015
rhumerus -33.3093 -15.5205 -81.8127
rradius 31.4513
rwrist 6.15178
rhand -16.1873 7.96488
rfingers 7.12502
rthumb 10.0195 -21.7766
lclavicle -2.34566e-014 9.14409e-015
lhumerus -31.8829 7.59805 79.8957
lradius 29.2398
lwrist -7.74081
lhand -18.6881 27.2598
lfingers 7.12502
lthumb 7.60618 57.103
rfemur -22.7668 -13.3579 15.0301
rtibia 66.4149
rfoot -8.95097 -4.36598
rtoes 14.8243
lfemur 1.34428 3.41827 -27.5906
ltibia 12.8277
lfoot -5.84564 -3.59487
ltoes -13.0111
103
root 11.0646 17.9412 -4.97267 -4.64722 -15.1074 8.51054
lowerback 11.7641 0.890517 -6.44939
upperback 0.880242 0.25396 -1.13249
thorax -5.70667 0.266545 2.40232
lowerneck -19.152 -7.40891 -13.4122
upperneck 28.512 -10.0124 11.2249
head 14.2885 -4.3964 4.97711
rclavicle -9.0944e-015 1.82882e-014
rhumerus -33.42 -15.8226 -81.6006
rradius 31.264
rwrist 6.04601
rhand -16.0969 8.09855
rfingers 7.12502
rthumb 10.1067 -21.6387
lclavicle -9.0944e-015 1.82882e-014
lhumerus -31.658 7.13044 79.9071
lradius 29.6544
lwrist -7.31803
lhand -19.0379 27.3707
lfingers 7.12502
lthumb 7.26852 57.2259
rfemur -23.4496 -13.4526 15.3292
rtibia 65.3201
rfoot -9.7041 -5.21865
rtoes 15.8124
lfemur 1.5509 3.65474 -27.4504
ltibia 13.3969
lfoot -6.3825 -3.26959
ltoes -14.1214
104
root 11.0304 17.9314 -4.86685 -4.61907 -15.4513 8.54728
lowerback 11.7293 0.791328 -6.45248
upperback 0.931153 0.127521 -1.1216
thorax -5.62182 0.201093 2.43695
lowerneck -19.3532 -7.40127 -13.3361
upperneck 28.4758 -9.99312 11.2101
head 14.3071 -4.37507 4.9567
rclavicle 1.63997e-015 7.95139e-016
rhumerus -33.3281 -16.2489 -81.4016
rradius 30.9533
rwrist 6.19933
rhand -16.0288 8.4868
rfingers 7.12502
rthumb 10.1724 -21.2473
lclavicle 1.63997e-015 7.95139e-016
lhumerus -31.3343 6.89486 79.8154
lradius 30.1319
lwrist -6.99002
lhand -18.9818 27.2754
lfingers 7.12502
lthumb 7.32271 57.1287
rfemur -24.2123 -13.616 15.4843
rtibia 64.1012
rfoot -10.3741 -5.93925
rtoes 15.3375
lfemur 1.74441 3.6982 -27.4767
ltibia 13.7261
lfoot -6.65895 -2.82031
ltoes -13.9949
105
root 10.9993 17.9254 -4.7663 -4.51144 -15.7764 8.64406
lowerback 11.729 0.694511 -6.46963
upperback 0.923755 -0.00488429 -1.14141
thorax -5.61759 0.136236 2.44746
lowerneck -19.4636 -7.39095 -13.2936
upperneck 28.2983 -9.97925 11.2683
head 14.2523 -4.35298 4.96719
rclavicle -5.62064e-014 -1.43125e-014
rhumerus -33.289 -16.8149 -81.1326
rradius 30.6551
rwrist 6.66778
rhand -15.8865 8.84171
rfingers 7.12502
rthumb 10.3096 -20.8856
lclavicle -5.62064e-014 -1.43125e-014
lhumerus -30.9555 6.87981 79.6332
lradius 30.4207
lwrist -6.99699
lhand -18.8823 27.3969
lfingers 7.12502
lthumb 7.41873 57.2468
rfemur -25.0876 -13.7473 15.6165
rtibia 62.7862
rfoot -10.9696 -6.69941
rtoes 13.933
lfemur 1.94444 3.84812 -27.5578
ltibia 13.7888
lfoot -6.71758 -2.56209
ltoes -13.7334
106
root 10.9639 17.9254 -4.66709 -4.39026 -16.0483 8.6723
lowerback 11.8326 0.602152 -6.45729
upperback 0.824774 -0.138088 -1.13002
thorax -5.76858 0.0772901 2.47425
lowerneck -19.3571 -7.38426 -13.3288
upperneck 28.1313 -9.97721 11.3331
head 14.1627 -4.35161 4.99523
rclavicle -7.03201e-014 -9.93923e-015
rhumerus -33.495 -16.9328 -80.9617
rradius 30.6164
rwrist 6.74397
rhand -15.6951 8.90061
rfingers 7.12502
rthumb 10.4943 -20.8174
lclavicle -7.03201e-014 -9.93923e-015
lhumerus -30.6476 6.7871 79.4863
lradius 30.6152
lwrist -6.97474
lhand -18.8098 27.8396
lfingers 7.12502
lthumb 7.4887 57.6871
rfemur -25.8984 -13.8984 15.8738
rtibia 61.3091
rfoot -11.18 -7.81277
rtoes 13.241
lfemur 2.26191 4.10058 -27.5394
ltibia 13.6557
lfoot -6.85432 -2.42218
ltoes -14.269
